<?xml version="1.0" encoding="UTF-8" standalone="no"?>
<!DOCTYPE svg PUBLIC "-//W3C//DTD SVG 1.1//EN" "http://www.w3.org/Graphics/SVG/1.1/DTD/svg11.dtd">
<svg width="100%" height="100%" viewBox="0 0 1000 1000" version="1.1" xmlns="http://www.w3.org/2000/svg" xmlns:xlink="http://www.w3.org/1999/xlink" xml:space="preserve" xmlns:serif="http://www.serif.com/" style="fill-rule:evenodd;clip-rule:evenodd;stroke-linejoin:round;stroke-miterlimit:2;">
    <g opacity="0.8">
        <g transform="matrix(2.74865,0,0,2.74865,-724.386,-793.542)">
            <ellipse cx="445.45" cy="470.61" rx="94.887" ry="91.75" style="fill:rgb(255,71,0);"/>
        </g>
        <path d="M383.091,718.349C417.532,740.161 457.352,748.744 497.239,754.353C571.428,764.786 649.257,768.373 718.531,735.172C724.08,732.512 726.426,725.847 723.767,720.298C721.107,714.748 714.442,712.402 708.893,715.062C643.631,746.34 570.236,742.099 500.344,732.271C463.588,727.102 426.761,719.61 395.023,699.509C389.824,696.217 382.93,697.764 379.637,702.963C376.344,708.162 377.892,715.056 383.091,718.349Z" style="fill:rgb(255,71,0);"/>
        <path d="M734.873,418.744C742.483,352.163 731.876,271.896 684.969,220.02C675.29,209.315 658.74,208.482 648.034,218.162C637.329,227.841 636.496,244.391 646.176,255.097C683.247,296.095 688.925,360.186 682.912,412.806C681.273,427.145 691.584,440.117 705.923,441.756C720.263,443.395 733.235,433.084 734.873,418.744Z" style="fill:rgb(255,71,0);"/>
        <path d="M285.777,370.756C217.837,419.953 154.95,503.355 181.037,594.095C185.025,607.966 199.524,615.99 213.395,612.002C227.266,608.014 235.289,593.515 231.301,579.644C211.521,510.844 264.939,450.418 316.451,413.116C328.141,404.651 330.759,388.288 322.294,376.599C313.829,364.909 297.466,362.291 285.777,370.756Z" style="fill:rgb(255,71,0);"/>
        <path d="M390.622,847.699C493.674,891.418 607.876,888.924 714.07,859.083C723.635,856.395 729.217,846.449 726.53,836.885C723.842,827.321 713.896,821.738 704.332,824.425C605.958,852.068 500.144,855.058 404.682,814.558C395.536,810.679 384.961,814.954 381.081,824.099C377.201,833.245 381.476,843.819 390.622,847.699Z" style="fill:rgb(255,71,0);"/>
        <g transform="matrix(1,0,0,1,-8.78292,-28.8582)">
            <path d="M212.794,678.81C225.543,711.174 252.46,740.244 281.405,758.948C293.527,766.781 309.728,763.299 317.561,751.177C325.394,739.055 321.912,722.854 309.79,715.021C289.622,701.989 270.338,682.191 261.454,659.641C256.164,646.213 240.968,639.605 227.539,644.895C214.111,650.185 207.504,665.382 212.794,678.81Z" style="fill:rgb(255,71,0);"/>
        </g>
        <path d="M626.603,158.775C574.023,141.763 519.537,128.499 463.835,136.483C449.549,138.53 439.612,151.792 441.66,166.078C443.707,180.365 456.969,190.301 471.255,188.254C518.966,181.416 565.467,193.964 610.504,208.535C624.236,212.978 638.992,205.436 643.434,191.704C647.877,177.973 640.335,163.217 626.603,158.775Z" style="fill:rgb(255,71,0);"/>
        <path d="M614.104,276.853C558.637,229.604 483.037,206.629 410.658,209.582C380.684,210.805 352.966,219.252 323.872,225.211C317.843,226.445 313.951,232.342 315.186,238.371C316.421,244.4 322.318,248.292 328.346,247.057C356.258,241.341 382.812,233.036 411.567,231.863C478.455,229.135 548.385,250.164 599.643,293.829C604.328,297.819 611.371,297.256 615.361,292.571C619.352,287.887 618.788,280.844 614.104,276.853Z" style="fill:rgb(255,71,0);"/>
        <g transform="matrix(1,0,0,1,50.1881,11.2923)">
            <path d="M649.488,321.485C643.368,290.887 633.904,259.231 614.749,234.132C589.61,201.193 550.377,179.241 506.108,165.843C441.717,146.355 366.72,144.869 311.882,151.724C262.389,157.912 212.115,173.287 164.839,188.899C158.995,190.829 155.818,197.14 157.747,202.984C159.677,208.827 165.988,212.004 171.832,210.075C217.758,194.908 266.568,179.863 314.649,173.852C366.879,167.322 438.319,168.625 499.648,187.187C539.193,199.155 574.566,218.238 597.022,247.662C614.132,270.08 622.155,298.527 627.621,325.859C628.828,331.893 634.707,335.812 640.741,334.606C646.776,333.399 650.695,327.52 649.488,321.485Z" style="fill:rgb(255,71,0);"/>
        </g>
        <path d="M332.567,680.627C330.359,719.269 349.556,747.863 377.429,768.317C403.543,787.481 437.412,799.306 466.566,805.668C535.72,820.76 647.045,827.063 714.364,801.212C752.492,786.571 786.297,760.036 812.791,729.325C816.81,724.666 816.291,717.619 811.632,713.599C806.972,709.58 799.926,710.099 795.906,714.759C771.774,742.731 741.098,767.058 706.369,780.395C642.518,804.914 536.913,798.196 471.321,783.881C444.959,778.128 414.236,767.667 390.622,750.339C368.767,734.301 353.1,712.198 354.831,681.899C355.182,675.755 350.479,670.482 344.335,670.131C338.192,669.78 332.919,674.483 332.567,680.627Z" style="fill:rgb(255,71,0);"/>
        <path d="M867.652,583.74C913.626,410.059 879.628,214.637 699.553,135.416C693.92,132.938 687.335,135.499 684.857,141.132C682.379,146.765 684.94,153.35 690.573,155.828C859.792,230.274 889.297,414.822 846.094,578.033C844.52,583.982 848.071,590.09 854.02,591.665C859.969,593.24 866.077,589.689 867.652,583.74Z" style="fill:rgb(255,71,0);"/>
        <g transform="matrix(0.965926,0.258819,-0.258819,0.965926,138.665,-59.7508)">
            <path d="M117.814,277.216C98.618,298.011 83.48,325.334 73.011,352.072C46.432,419.957 64.771,552.494 105.669,614.386C109.062,619.52 115.985,620.934 121.119,617.541C126.253,614.148 127.667,607.225 124.274,602.091C86.553,545.008 69.262,422.814 93.776,360.203C103.255,335.993 116.82,311.17 134.2,292.341C138.374,287.819 138.092,280.759 133.57,276.585C129.048,272.411 121.988,272.694 117.814,277.216Z" style="fill:rgb(255,71,0);"/>
        </g>
        <g transform="matrix(0.965926,0.258819,-0.258819,0.965926,164.194,-103.748)">
            <path d="M144.499,709.826C185.98,745.162 230.838,775.614 283.394,791.865C289.273,793.683 295.523,790.386 297.341,784.507C299.159,778.628 295.861,772.378 289.982,770.561C240.351,755.214 198.132,726.219 158.96,692.85C154.275,688.86 147.232,689.423 143.242,694.108C139.251,698.792 139.815,705.835 144.499,709.826Z" style="fill:rgb(255,71,0);"/>
        </g>
        <path d="M640.152,115.652C568.931,76.596 492.804,64.891 412.55,65.996C406.397,66.081 401.47,71.145 401.555,77.299C401.64,83.452 406.704,88.379 412.857,88.294C489.197,87.242 561.682,98.054 629.429,135.205C634.825,138.164 641.608,136.186 644.567,130.79C647.526,125.394 645.548,118.611 640.152,115.652Z" style="fill:rgb(255,71,0);"/>
    </g>
</svg>
