<?xml version="1.0" encoding="UTF-8" standalone="no"?>
<!DOCTYPE svg PUBLIC "-//W3C//DTD SVG 1.1//EN" "http://www.w3.org/Graphics/SVG/1.1/DTD/svg11.dtd">
<svg width="100%" height="100%" viewBox="0 0 1000 1000" version="1.1" xmlns="http://www.w3.org/2000/svg" xmlns:xlink="http://www.w3.org/1999/xlink" xml:space="preserve" xmlns:serif="http://www.serif.com/" style="fill-rule:evenodd;clip-rule:evenodd;stroke-linejoin:round;stroke-miterlimit:2;">
    <g opacity="0.8">
        <path d="M325.997,470.538C325.997,598.151 393.917,700.384 518.106,738.81C523.985,740.629 530.235,737.333 532.054,731.454C533.873,725.575 530.577,719.326 524.698,717.507C410.47,682.163 348.297,587.915 348.297,470.538C348.297,464.384 343.301,459.388 337.147,459.388C330.993,459.388 325.997,464.384 325.997,470.538Z" style="fill:rgb(255,125,0);"/>
        <path d="M602.084,361.746C516.932,307.816 466.379,293.84 364.248,302.035C358.114,302.527 353.534,307.907 354.026,314.041C354.518,320.175 359.898,324.755 366.032,324.263C462.279,316.541 509.906,329.763 590.152,380.585C595.351,383.878 602.245,382.33 605.538,377.132C608.831,371.933 607.283,365.039 602.084,361.746Z" style="fill:rgb(255,125,0);"/>
        <path d="M672.944,484.117C691.903,439.428 703.357,390.804 686.011,343.337C683.899,337.557 677.491,334.58 671.711,336.692C665.931,338.804 662.954,345.212 665.066,350.992C680.409,392.977 669.185,435.88 652.415,475.408C650.012,481.073 652.66,487.624 658.325,490.027C663.99,492.431 670.541,489.782 672.944,484.117Z" style="fill:rgb(255,125,0);"/>
        <path d="M669.69,310.786C661.1,297.222 651.316,285.553 638.661,275.59C633.826,271.783 626.81,272.618 623.003,277.453C619.196,282.289 620.031,289.305 624.866,293.111C635.49,301.476 643.639,311.33 650.851,322.717C654.143,327.916 661.037,329.464 666.236,326.171C671.435,322.879 672.983,315.985 669.69,310.786Z" style="fill:rgb(255,125,0);"/>
        <path d="M607.989,252.854C591.493,245.121 574.59,239.362 556.71,235.81C550.674,234.61 544.8,238.537 543.601,244.573C542.402,250.609 546.328,256.483 552.364,257.682C568.461,260.881 583.673,266.084 598.524,273.046C604.096,275.658 610.741,273.254 613.353,267.682C615.965,262.11 613.561,255.466 607.989,252.854Z" style="fill:rgb(255,125,0);"/>
        <g transform="matrix(-1,0,0,-1,997.075,992.506)">
            <path d="M672.944,484.117C691.903,439.428 703.357,390.804 686.011,343.337C683.899,337.557 677.491,334.58 671.711,336.692C665.931,338.804 662.954,345.212 665.066,350.992C680.409,392.977 669.185,435.88 652.415,475.408C650.012,481.073 652.66,487.624 658.325,490.027C663.99,492.431 670.541,489.782 672.944,484.117Z" style="fill:rgb(255,125,0);"/>
        </g>
        <g transform="matrix(-1,0,0,-1,997.075,992.506)">
            <path d="M669.69,310.786C661.1,297.222 651.316,285.553 638.661,275.59C633.826,271.783 626.81,272.618 623.003,277.453C619.196,282.289 620.031,289.305 624.866,293.111C635.49,301.476 643.639,311.33 650.851,322.717C654.143,327.916 661.037,329.464 666.236,326.171C671.435,322.879 672.983,315.985 669.69,310.786Z" style="fill:rgb(255,125,0);"/>
        </g>
        <g transform="matrix(-1,0,0,-1,997.075,992.506)">
            <path d="M607.989,252.854C591.493,245.121 574.59,239.362 556.71,235.81C550.674,234.61 544.8,238.537 543.601,244.573C542.402,250.609 546.328,256.483 552.364,257.682C568.461,260.881 583.673,266.084 598.524,273.046C604.096,275.658 610.741,273.254 613.353,267.682C615.965,262.11 613.561,255.466 607.989,252.854Z" style="fill:rgb(255,125,0);"/>
        </g>
        <g transform="matrix(1.88659,0,0,1.88659,-340.382,-387.849)">
            <ellipse cx="445.45" cy="470.61" rx="94.887" ry="91.75" style="fill:rgb(255,125,0);"/>
        </g>
    </g>
</svg>
