<?xml version="1.0" encoding="UTF-8" standalone="no"?>
<!DOCTYPE svg PUBLIC "-//W3C//DTD SVG 1.1//EN" "http://www.w3.org/Graphics/SVG/1.1/DTD/svg11.dtd">
<svg width="100%" height="100%" viewBox="0 0 1000 1000" version="1.1" xmlns="http://www.w3.org/2000/svg" xmlns:xlink="http://www.w3.org/1999/xlink" xml:space="preserve" xmlns:serif="http://www.serif.com/" style="fill-rule:evenodd;clip-rule:evenodd;stroke-linejoin:round;stroke-miterlimit:2;">
    <g opacity="0.8">
        <g transform="matrix(1.49001,0,0,1.49001,-163.726,-201.215)">
            <ellipse cx="445.45" cy="470.61" rx="94.887" ry="91.75" style="fill:rgb(255,231,0);"/>
        </g>
        <path d="M587.229,393.215C511.774,351.836 421.793,344.121 337.786,359.004C331.726,360.078 327.678,365.869 328.752,371.928C329.825,377.988 335.616,382.036 341.676,380.962C420.744,366.954 505.488,373.822 576.507,412.768C581.902,415.727 588.685,413.748 591.644,408.353C594.603,402.957 592.625,396.174 587.229,393.215Z" style="fill:rgb(255,231,0);"/>
        <path d="M425.367,617.855C490.495,648.384 571.539,677.532 643.996,656.127C649.897,654.383 653.273,648.176 651.53,642.274C649.786,636.373 643.579,632.997 637.677,634.74C570.361,654.628 495.339,626.026 434.831,597.663C429.259,595.051 422.615,597.455 420.003,603.027C417.391,608.599 419.794,615.243 425.367,617.855Z" style="fill:rgb(255,231,0);"/>
    </g>
</svg>
