<?xml version="1.0" encoding="UTF-8" standalone="no"?>
<!DOCTYPE svg PUBLIC "-//W3C//DTD SVG 1.1//EN" "http://www.w3.org/Graphics/SVG/1.1/DTD/svg11.dtd">
<svg width="100%" height="100%" viewBox="0 0 1000 1000" version="1.1" xmlns="http://www.w3.org/2000/svg" xmlns:xlink="http://www.w3.org/1999/xlink" xml:space="preserve" xmlns:serif="http://www.serif.com/" style="fill-rule:evenodd;clip-rule:evenodd;stroke-linejoin:round;stroke-miterlimit:2;">
    <g transform="matrix(1.62728,0,0,1.62728,-326.44,-387.194)">
        <path d="M615.861,771.981C610.892,764.245 600.98,753.785 596.759,746.357C578.714,714.6 565.867,681.065 561.712,644.709C560.631,635.257 567.428,626.706 576.88,625.625C586.332,624.545 594.883,631.342 595.964,640.794C599.585,672.486 611.003,701.642 626.733,729.324C632.345,739.201 646.4,754.295 649.967,762.891C651.211,765.89 651.922,769.873 651.22,774.516C650.437,779.693 646.54,787.742 645.256,790.757C640.423,802.109 636.173,813.68 633.354,825.698C631.182,834.96 621.899,840.716 612.636,838.544C603.374,836.371 597.618,827.088 599.79,817.826C603.062,803.878 607.928,790.426 613.537,777.252C613.903,776.391 614.97,773.983 615.861,771.981Z" style="fill:rgb(218,218,218);"/>
    </g>
    <g transform="matrix(1.57183,0.42117,-0.42117,1.57183,-192.558,-590.411)">
        <path d="M615.861,771.981C610.892,764.245 600.98,753.785 596.759,746.357C578.714,714.6 565.867,681.065 561.712,644.709C560.631,635.257 567.428,626.706 576.88,625.625C586.332,624.545 594.883,631.342 595.964,640.794C599.585,672.486 611.003,701.642 626.733,729.324C632.345,739.201 646.4,754.295 649.967,762.891C651.211,765.89 651.922,769.873 651.22,774.516C650.437,779.693 646.54,787.742 645.256,790.757C640.423,802.109 636.173,813.68 633.354,825.698C631.182,834.96 621.899,840.716 612.636,838.544C603.374,836.371 597.618,827.088 599.79,817.826C603.062,803.878 607.928,790.426 613.537,777.252C613.903,776.391 614.97,773.983 615.861,771.981Z" style="fill:rgb(218,218,218);"/>
    </g>
    <g transform="matrix(1.22012,0,0,1.22012,-107.465,-118.428)">
        <path d="M591.041,437.669C623.53,453.913 656.214,476.225 672.556,509.64C681.273,527.463 684.756,546.492 688.014,565.852C690.12,578.365 701.988,586.814 714.5,584.708C727.012,582.602 735.461,570.734 733.356,558.222C729.36,534.48 724.55,511.295 713.86,489.439C693.097,446.986 652.879,417.182 611.603,396.544C600.254,390.869 586.434,395.476 580.759,406.825C575.085,418.174 579.692,431.994 591.041,437.669Z" style="fill:rgb(218,218,218);"/>
    </g>
    <g transform="matrix(1.22012,0,0,1.22012,-100.399,-125.495)">
        <g transform="matrix(1,0,0,1,0,10.0037)">
            <path d="M409.903,398.211C358.359,402.506 306.448,375.334 296.039,322.223C293.599,309.772 281.509,301.644 269.057,304.084C256.606,306.524 248.478,318.614 250.918,331.066C265.985,407.946 339.109,450.249 413.721,444.031C426.366,442.978 435.776,431.856 434.722,419.212C433.668,406.568 422.547,397.157 409.903,398.211Z" style="fill:rgb(218,218,218);"/>
        </g>
        <path d="M409.903,398.211C358.359,402.506 306.448,375.334 296.039,322.223C293.599,309.772 281.509,301.644 269.057,304.084C256.606,306.524 248.478,318.614 250.918,331.066C265.985,407.946 339.109,450.249 413.721,444.031C426.366,442.978 435.776,431.856 434.722,419.212C433.668,406.568 422.547,397.157 409.903,398.211Z" style="fill:rgb(235,235,235);"/>
        <g transform="matrix(0.621234,0,0,0.621234,210.608,166.6)">
            <path d="M705.772,283.877C705.772,236.615 667.401,198.243 620.138,198.243L448.871,198.243C401.608,198.243 363.237,236.615 363.237,283.877L363.237,652.133C363.237,699.395 401.608,737.767 448.871,737.767L620.138,737.767C667.401,737.767 705.772,699.395 705.772,652.133L705.772,283.877Z" style="fill:rgb(218,218,218);"/>
        </g>
        <g transform="matrix(1,0,0,1,12.0452,4.81806)">
            <path d="M602.592,308.257C589.464,263.623 595.441,190.65 622.965,151.466C623.888,150.152 623.571,148.335 622.257,147.412C620.943,146.489 619.126,146.807 618.203,148.121C589.8,188.557 583.462,263.839 597.009,309.899C597.462,311.44 599.081,312.323 600.622,311.87C602.162,311.417 603.045,309.798 602.592,308.257Z" style="fill:rgb(218,218,218);"/>
        </g>
        <g transform="matrix(0.621234,0,0,0.621234,167.948,209.26)">
            <path d="M705.772,283.877C705.772,236.615 667.401,198.243 620.138,198.243L448.871,198.243C401.608,198.243 363.237,236.615 363.237,283.877L363.237,652.133C363.237,699.395 401.608,737.767 448.871,737.767L620.138,737.767C667.401,737.767 705.772,699.395 705.772,652.133L705.772,283.877Z" style="fill:rgb(235,235,235);"/>
            <clipPath id="_clip1">
                <path d="M705.772,283.877C705.772,236.615 667.401,198.243 620.138,198.243L448.871,198.243C401.608,198.243 363.237,236.615 363.237,283.877L363.237,652.133C363.237,699.395 401.608,737.767 448.871,737.767L620.138,737.767C667.401,737.767 705.772,699.395 705.772,652.133L705.772,283.877Z"/>
            </clipPath>
            <g clip-path="url(#_clip1)">
                <g transform="matrix(1.5273,0,0,1.45788,-52.4571,-362.398)">
                    <ellipse cx="394.605" cy="337.516" rx="105.395" ry="110.414" style="fill-opacity:0.03;"/>
                </g>
            </g>
        </g>
        <g transform="matrix(0.94881,0,0,0.905682,125.595,-19.9855)">
            <ellipse cx="394.605" cy="337.516" rx="105.395" ry="110.414" style="fill:rgb(235,235,235);"/>
        </g>
        <g transform="matrix(0.743452,0,0,0.709659,206.63,46.1753)">
            <ellipse cx="394.605" cy="337.516" rx="105.395" ry="110.414" style="fill:rgb(33,37,41);"/>
            <clipPath id="_clip2">
                <ellipse cx="394.605" cy="337.516" rx="105.395" ry="110.414"/>
            </clipPath>
            <g clip-path="url(#_clip2)">
                <g transform="matrix(1.34508,0,0,1.40913,-277.933,-65.0669)">
                    <path d="M522.749,208.721C529.578,211.411 535.087,216.758 539.381,222.562C557.405,246.921 550.706,280.379 532.539,302.72C514.008,325.508 478.802,335.5 450.316,332.266C443.376,331.478 436.98,329.074 430.33,327.143C430.315,327.139 430.349,329.411 430.366,329.639C430.569,332.292 431.203,334.882 432.064,337.394C434.744,345.222 440.207,351.474 446.891,356.193C459.111,364.819 475.642,373.68 490.264,377.181C513.599,382.768 542.115,378.806 563.374,367.784C583.43,357.387 598.02,338.271 607.476,318.355C611.932,308.969 616.432,300.402 618.853,290.132C625.538,261.781 619.347,230.853 603.698,206.445" style="fill:rgb(0,10,20);fill-opacity:0.67;"/>
                </g>
                <g transform="matrix(1.34508,0,0,1.40913,-283.463,-77.2332)">
                    <path d="M446.26,300.557C446.764,282.931 455.782,260.282 469.349,248.951C474.4,244.733 480.17,241.586 486.002,238.598C487.968,237.591 489.944,236.601 491.952,235.679C492.579,235.391 493.208,235.105 493.844,234.836C494.203,234.685 495.143,234.693 494.918,234.376C494.137,233.28 489.211,233.404 487.979,233.39C480.904,233.312 473.614,235.462 467.447,238.843C449.51,248.675 437.982,275.709 444.093,295.291" style="fill:white;"/>
                </g>
            </g>
        </g>
        <g transform="matrix(1,0,0,1,0.673614,0)">
            <circle cx="633.606" cy="151.752" r="7.949" style="fill:rgb(218,218,218);"/>
        </g>
        <g transform="matrix(0.388497,0,0,0.388497,292.347,318.181)">
            <path d="M705.772,283.877C705.772,236.615 667.401,198.243 620.138,198.243L448.871,198.243C401.608,198.243 363.237,236.615 363.237,283.877L363.237,652.133C363.237,699.395 401.608,737.767 448.871,737.767L620.138,737.767C667.401,737.767 705.772,699.395 705.772,652.133L705.772,283.877Z" style="fill:rgb(218,218,218);"/>
        </g>
        <g transform="matrix(0.388497,0,0,0.388497,284.638,318.181)">
            <path d="M705.772,283.877C705.772,236.615 667.401,198.243 620.138,198.243L448.871,198.243C401.608,198.243 363.237,236.615 363.237,283.877L363.237,652.133C363.237,699.395 401.608,737.767 448.871,737.767L620.138,737.767C667.401,737.767 705.772,699.395 705.772,652.133L705.772,283.877Z" style="fill:rgb(226,226,226);"/>
        </g>
        <g transform="matrix(1,0,0,1,24.2573,-24.2573)">
            <path d="M518.067,456.324C518.067,445.545 509.317,436.794 498.538,436.794C487.76,436.794 479.009,445.545 479.009,456.324L479.009,508.95C479.009,519.728 487.76,528.479 498.538,528.479C509.317,528.479 518.067,519.728 518.067,508.95L518.067,456.324Z" style="fill:rgb(194,244,255);"/>
            <clipPath id="_clip3">
                <path d="M518.067,456.324C518.067,445.545 509.317,436.794 498.538,436.794C487.76,436.794 479.009,445.545 479.009,456.324L479.009,508.95C479.009,519.728 487.76,528.479 498.538,528.479C509.317,528.479 518.067,519.728 518.067,508.95L518.067,456.324Z"/>
            </clipPath>
            <g clip-path="url(#_clip3)">
                <g transform="matrix(1,0,0,1,-24.2573,24.2573)">
                    <path d="M497.253,433.233C507.477,428.441 515.032,433.428 524.918,435.946C529.633,437.146 534.299,437.151 539.105,436.564C542.923,436.098 546.524,434.329 549.642,437.267C555.443,442.734 556.316,453.097 555.726,460.569C555.049,469.152 552.438,477.33 550.243,485.598C546.623,499.227 543.94,514.854 531.815,523.719C520.285,532.149 505.575,528.767 493.084,524.898C487.357,523.124 481.054,521.03 477.336,516.007C467.989,503.377 468.696,486.809 474.609,473.08" style="fill:rgb(103,149,212);"/>
                </g>
                <g transform="matrix(1,0,0,1,-24.2573,24.2573)">
                    <ellipse cx="529.239" cy="490.94" rx="1.347" ry="1.455" style="fill:rgb(194,244,255);"/>
                </g>
                <g transform="matrix(1,0,0,1,-24.2573,24.2573)">
                    <circle cx="528.7" cy="483.611" r="1.239" style="fill:rgb(194,244,255);"/>
                </g>
                <g transform="matrix(1,0,0,1,-24.2573,24.2573)">
                    <circle cx="537.349" cy="483.261" r="1.051" style="fill:rgb(194,244,255);"/>
                </g>
                <g transform="matrix(1,0,0,1,-24.2573,24.2573)">
                    <circle cx="526.733" cy="470.489" r="0.781" style="fill:rgb(194,244,255);"/>
                </g>
                <g transform="matrix(1,0,0,1,-24.2573,24.2573)">
                    <circle cx="538.831" cy="467.121" r="1.778" style="fill:rgb(194,244,255);"/>
                </g>
                <g transform="matrix(1,0,0,1,-24.2573,24.2573)">
                    <path d="M515.053,413.846C512.14,421.241 511.873,430.463 511.522,438.326C511.015,449.698 510.916,461.232 512.033,472.569C512.5,477.317 512.709,481.965 514.073,486.569C515.764,492.281 519.354,497.623 524.52,500.681C526.623,501.925 528.856,502.96 531.151,503.797C532.025,504.115 533.597,504.181 533.054,505.174C530.475,509.886 524.552,511.746 519.513,512.017C507.581,512.66 495.641,503.291 490.252,493.241C482.009,477.868 481.758,460.737 484.912,443.943C486.908,433.314 490.152,423.315 496.515,414.478" style="fill:white;fill-opacity:0.25;"/>
                </g>
                <g transform="matrix(1,0,0,1,-24.2573,24.2573)">
                    <path d="M512.685,427.331C512.685,426.859 512.302,426.476 511.83,426.476L510.12,426.476C509.648,426.476 509.264,426.859 509.264,427.331L509.264,491.93C509.264,492.402 509.648,492.785 510.12,492.785L511.83,492.785C512.302,492.785 512.685,492.402 512.685,491.93L512.685,427.331Z" style="fill:white;"/>
                </g>
            </g>
        </g>
        <circle cx="464.46" cy="433.574" r="17.577" style="fill:rgb(243,137,173);"/>
        <clipPath id="_clip4">
            <circle cx="464.46" cy="433.574" r="17.577"/>
        </clipPath>
        <g clip-path="url(#_clip4)">
            <path d="M452.083,438.508C449.89,431.051 453.617,421.218 462.297,420.513C463.548,420.411 464.825,420.401 466.058,420.67C466.61,420.791 467.157,420.441 467.277,419.888C467.398,419.336 467.048,418.789 466.495,418.669C465.064,418.356 463.583,418.353 462.131,418.471C452.122,419.283 447.588,430.487 450.118,439.087C450.277,439.629 450.847,439.94 451.39,439.78C451.932,439.621 452.243,439.051 452.083,438.508Z" style="fill:white;fill-opacity:0.71;"/>
        </g>
        <g transform="matrix(1,0,0,1,0,38.7328)">
            <circle cx="464.46" cy="433.574" r="17.577" style="fill:rgb(204,137,243);"/>
            <clipPath id="_clip5">
                <circle cx="464.46" cy="433.574" r="17.577"/>
            </clipPath>
            <g clip-path="url(#_clip5)">
                <path d="M452.083,438.508C449.89,431.051 453.617,421.218 462.297,420.513C463.548,420.411 464.825,420.401 466.058,420.67C466.61,420.791 467.157,420.441 467.277,419.888C467.398,419.336 467.048,418.789 466.495,418.669C465.064,418.356 463.583,418.353 462.131,418.471C452.122,419.283 447.588,430.487 450.118,439.087C450.277,439.629 450.847,439.94 451.39,439.78C451.932,439.621 452.243,439.051 452.083,438.508Z" style="fill:white;fill-opacity:0.71;"/>
            </g>
        </g>
        <g transform="matrix(1.14925,0,0,1,-72.255,0)">
            <path d="M519.385,532.766C519.385,525.232 514.063,519.116 507.508,519.116L448.047,519.116C441.492,519.116 436.17,525.232 436.17,532.766L436.17,560.065C436.17,567.599 441.492,573.715 448.047,573.715L507.508,573.715C514.063,573.715 519.385,567.599 519.385,560.065L519.385,532.766Z" style="fill:rgb(218,218,218);"/>
        </g>
        <g transform="matrix(0.866496,0,0,0.740014,70.4395,141.951)">
            <path d="M519.385,532.766C519.385,525.232 514.162,519.116 507.728,519.116L447.828,519.116C441.394,519.116 436.17,525.232 436.17,532.766L436.17,560.065C436.17,567.599 441.394,573.715 447.828,573.715L507.728,573.715C514.162,573.715 519.385,567.599 519.385,560.065L519.385,532.766Z" style="fill:rgb(33,37,41);"/>
            <clipPath id="_clip6">
                <path d="M519.385,532.766C519.385,525.232 514.162,519.116 507.728,519.116L447.828,519.116C441.394,519.116 436.17,525.232 436.17,532.766L436.17,560.065C436.17,567.599 441.394,573.715 447.828,573.715L507.728,573.715C514.162,573.715 519.385,567.599 519.385,560.065L519.385,532.766Z"/>
            </clipPath>
            <g clip-path="url(#_clip6)">
                <g transform="matrix(1.15407,0,0,1.35133,-74.4901,-191.823)">
                    <rect x="441.062" y="546.373" width="76.657" height="2.021" style="fill:rgb(9,142,0);"/>
                </g>
                <g transform="matrix(2.85647e-17,0.54623,-0.466497,3.34469e-17,704.262,283.92)">
                    <rect x="441.062" y="546.373" width="76.657" height="2.021" style="fill:rgb(9,142,0);"/>
                </g>
                <g transform="matrix(2.06e-17,0.393925,-0.466497,3.34469e-17,705.981,355.329)">
                    <rect x="441.062" y="546.373" width="76.657" height="2.021" style="fill:rgb(9,142,0);"/>
                </g>
                <g transform="matrix(2.17147e-17,0.415241,-0.466497,3.34469e-17,707.701,351.959)">
                    <rect x="441.062" y="546.373" width="76.657" height="2.021" style="fill:rgb(9,142,0);"/>
                </g>
                <g transform="matrix(1.38299e-17,0.264463,-0.466497,3.34469e-17,709.548,418.462)">
                    <rect x="441.062" y="546.373" width="76.657" height="2.021" style="fill:rgb(9,142,0);"/>
                </g>
                <g transform="matrix(2.85647e-17,0.54623,-0.466497,3.34469e-17,730.11,283.92)">
                    <rect x="441.062" y="546.373" width="76.657" height="2.021" style="fill:rgb(9,142,0);"/>
                </g>
                <g transform="matrix(2.06e-17,0.393925,-0.466497,3.34469e-17,731.83,355.329)">
                    <rect x="441.062" y="546.373" width="76.657" height="2.021" style="fill:rgb(9,142,0);"/>
                </g>
                <g transform="matrix(2.17147e-17,0.415241,-0.466497,3.34469e-17,733.549,351.959)">
                    <rect x="441.062" y="546.373" width="76.657" height="2.021" style="fill:rgb(9,142,0);"/>
                </g>
                <g transform="matrix(1.38299e-17,0.264463,-0.466497,3.34469e-17,735.396,418.462)">
                    <rect x="441.062" y="546.373" width="76.657" height="2.021" style="fill:rgb(9,142,0);"/>
                </g>
                <g transform="matrix(2.85647e-17,0.54623,-0.466497,3.34469e-17,754.21,283.92)">
                    <rect x="441.062" y="546.373" width="76.657" height="2.021" style="fill:rgb(9,142,0);"/>
                </g>
                <g transform="matrix(2.06e-17,0.393925,-0.466497,3.34469e-17,755.929,355.329)">
                    <rect x="441.062" y="546.373" width="76.657" height="2.021" style="fill:rgb(9,142,0);"/>
                </g>
                <g transform="matrix(2.17147e-17,0.415241,-0.466497,3.34469e-17,757.649,351.959)">
                    <rect x="441.062" y="546.373" width="76.657" height="2.021" style="fill:rgb(9,142,0);"/>
                </g>
                <g transform="matrix(1.38299e-17,0.264463,-0.466497,3.34469e-17,759.495,418.462)">
                    <rect x="441.062" y="546.373" width="76.657" height="2.021" style="fill:rgb(9,142,0);"/>
                </g>
                <g transform="matrix(1.15327,-0.0504759,0.043108,1.35038,-97.5374,-168.086)">
                    <path d="M447.418,556.082C447.555,551.286 447.147,546.416 447.566,541.637C447.765,539.367 448.012,536.929 449.384,535.031C451.118,532.632 454.099,531.798 456.928,531.586C462.483,531.171 468.244,531.778 473.801,532.042C474.366,532.069 474.846,531.632 474.873,531.067C474.9,530.502 474.463,530.022 473.898,529.995C468.259,529.728 462.412,529.122 456.775,529.543C453.359,529.798 449.818,530.933 447.724,533.83C446.134,536.03 445.755,538.828 445.525,541.458C445.102,546.277 445.508,551.187 445.37,556.024C445.353,556.589 445.799,557.061 446.364,557.077C446.93,557.093 447.402,556.648 447.418,556.082Z" style="fill:white;fill-opacity:0.33;"/>
                </g>
            </g>
        </g>
        <path d="M628.761,563.432C624.69,563.764 621.065,560.791 620.617,556.705C620.16,552.545 623.166,548.798 627.326,548.342C633.345,547.681 637.264,549.37 639.806,551.706C643.37,554.982 644.946,560.724 643.392,567.995C641.311,577.732 636.649,587.837 629.392,594.836C620.707,603.211 608.158,605.827 596.519,606.132C572.532,606.761 543.122,598.001 527.066,579.153C524.352,575.968 524.735,571.179 527.921,568.466C531.106,565.752 535.895,566.136 538.608,569.321C551.851,584.867 576.337,591.493 596.122,590.975C604.096,590.766 612.917,589.659 618.866,583.922C624.001,578.97 627.092,571.715 628.565,564.826C628.654,564.406 628.717,563.903 628.761,563.432Z" style="fill:rgb(115,115,115);"/>
        <path d="M436.086,538.242C422.477,544.015 404.064,543.249 391.653,535.047C388.162,532.74 383.455,533.701 381.148,537.192C378.841,540.683 379.803,545.39 383.293,547.697C399.699,558.538 424.019,559.832 442.007,552.2C445.859,550.566 447.66,546.112 446.026,542.261C444.392,538.409 439.938,536.608 436.086,538.242Z" style="fill:rgb(115,115,115);"/>
        <path d="M591.041,437.669C623.53,453.913 656.214,476.225 672.556,509.64C681.273,527.463 684.756,546.492 688.014,565.852C690.12,578.365 701.988,586.814 714.5,584.708C727.012,582.602 735.461,570.734 733.356,558.222C729.36,534.48 724.55,511.295 713.86,489.439C693.097,446.986 652.879,417.182 611.603,396.544C600.254,390.869 586.434,395.476 580.759,406.825C575.085,418.174 579.692,431.994 591.041,437.669Z" style="fill:rgb(235,235,235);"/>
        <g transform="matrix(1.3337,0,0,1.3337,-193.159,-214.487)">
            <path d="M615.861,771.981C610.892,764.245 600.98,753.785 596.759,746.357C578.714,714.6 565.867,681.065 561.712,644.709C560.631,635.257 567.428,626.706 576.88,625.625C586.332,624.545 594.883,631.342 595.964,640.794C599.585,672.486 611.003,701.642 626.733,729.324C632.345,739.201 646.4,754.295 649.967,762.891C651.211,765.89 651.922,769.873 651.22,774.516C650.437,779.693 646.54,787.742 645.256,790.757C640.423,802.109 636.173,813.68 633.354,825.698C631.182,834.96 621.899,840.716 612.636,838.544C603.374,836.371 597.618,827.088 599.79,817.826C603.062,803.878 607.928,790.426 613.537,777.252C613.903,776.391 614.97,773.983 615.861,771.981Z" style="fill:rgb(235,235,235);"/>
        </g>
        <g transform="matrix(1.28826,0.345187,-0.345187,1.28826,-85.0758,-390.584)">
            <path d="M615.861,771.981C610.892,764.245 600.98,753.785 596.759,746.357C578.714,714.6 565.867,681.065 561.712,644.709C560.631,635.257 567.428,626.706 576.88,625.625C586.332,624.545 594.883,631.342 595.964,640.794C599.585,672.486 611.003,701.642 626.733,729.324C632.345,739.201 646.4,754.295 649.967,762.891C651.211,765.89 651.922,769.873 651.22,774.516C650.437,779.693 646.54,787.742 645.256,790.757C640.423,802.109 636.173,813.68 633.354,825.698C631.182,834.96 621.899,840.716 612.636,838.544C603.374,836.371 597.618,827.088 599.79,817.826C603.062,803.878 607.928,790.426 613.537,777.252C613.903,776.391 614.97,773.983 615.861,771.981Z" style="fill:rgb(235,235,235);"/>
        </g>
    </g>
</svg>
