<?xml version="1.0" encoding="UTF-8" standalone="no"?>
<!DOCTYPE svg PUBLIC "-//W3C//DTD SVG 1.1//EN" "http://www.w3.org/Graphics/SVG/1.1/DTD/svg11.dtd">
<svg width="100%" height="100%" viewBox="0 0 1000 1000" version="1.1" xmlns="http://www.w3.org/2000/svg" xmlns:xlink="http://www.w3.org/1999/xlink" xml:space="preserve" xmlns:serif="http://www.serif.com/" style="fill-rule:evenodd;clip-rule:evenodd;stroke-linejoin:round;stroke-miterlimit:2;">
    <g transform="matrix(0.994839,0,0,0.994839,12.6989,24.6926)">
        <path d="M532.604,37.564C504.154,34.799 475.504,34.799 447.054,37.564L432.964,106.158C405.696,110.331 378.97,117.492 353.268,127.513L306.769,75.153C280.748,86.984 255.936,101.309 232.68,117.928L254.775,184.378C233.247,201.626 213.682,221.191 196.434,242.719L129.984,220.624C113.365,243.88 99.04,268.692 87.209,294.713L139.569,341.212C129.548,366.914 122.387,393.64 118.214,420.908L49.62,434.998C46.855,463.448 46.855,492.098 49.62,520.548L118.214,534.638C122.387,561.906 129.548,588.632 139.569,614.334L87.209,660.833C99.04,686.854 113.365,711.666 129.984,734.922L196.434,712.827C213.682,734.356 233.247,753.92 254.775,771.168L232.68,837.618C255.936,854.237 280.748,868.562 306.769,880.393L353.268,828.033C378.97,838.054 405.696,845.215 432.964,849.388L447.054,917.982C475.504,920.747 504.154,920.747 532.604,917.982L546.694,849.388C573.962,845.215 600.688,838.054 626.39,828.033L672.889,880.393C698.91,868.562 723.722,854.237 746.978,837.618L724.883,771.168C746.412,753.92 765.976,734.356 783.224,712.827L849.674,734.922C866.293,711.666 880.618,686.854 892.449,660.833L840.089,614.334C850.11,588.632 857.271,561.906 861.444,534.638L930.038,520.548C932.803,492.098 932.803,463.448 930.038,434.998L861.444,420.908C857.271,393.64 850.11,366.914 840.089,341.212L892.449,294.713C880.618,268.692 866.293,243.88 849.674,220.624L783.224,242.719C765.976,221.191 746.412,201.626 724.883,184.378L746.978,117.928C723.722,101.309 698.91,86.984 672.889,75.153L626.39,127.513C600.688,117.492 573.962,110.331 546.694,106.158L532.604,37.564ZM489.829,183.363C652.318,183.363 784.239,315.284 784.239,477.773C784.239,640.262 652.318,772.183 489.829,772.183C327.34,772.183 195.419,640.262 195.419,477.773C195.419,315.284 327.34,183.363 489.829,183.363Z" style="fill:rgb(129,129,129);"/>
    </g>
</svg>
