<?xml version="1.0" encoding="UTF-8" standalone="no"?>
<!DOCTYPE svg PUBLIC "-//W3C//DTD SVG 1.1//EN" "http://www.w3.org/Graphics/SVG/1.1/DTD/svg11.dtd">
<svg width="100%" height="100%" viewBox="0 0 1920 1080" version="1.1" xmlns="http://www.w3.org/2000/svg" xmlns:xlink="http://www.w3.org/1999/xlink" xml:space="preserve" xmlns:serif="http://www.serif.com/" style="fill-rule:evenodd;clip-rule:evenodd;stroke-linejoin:round;stroke-miterlimit:2;">
    <g transform="matrix(1.71191,0,0,1.71191,-683.435,-792.263)">
        <g transform="matrix(1,0,0,1,0,284.566)">
            <g transform="matrix(1,0,0,1.5681,-4.33626,-110.763)">
                <path d="M1126.38,608.716C1173.62,562.651 1200.42,498.341 1200.42,431.034C1200.42,296.534 1095.3,187.337 965.824,187.337C836.35,187.337 731.233,296.534 731.233,431.034C731.233,498.341 758.03,562.652 805.271,608.716L1126.38,608.716Z" style="fill:rgb(245,245,245);"/>
            </g>
            <path d="M764.827,416.649C753.051,453.049 736.166,493.343 700.998,512.538C695.041,515.79 692.844,523.265 696.096,529.222C699.347,535.179 706.823,537.376 712.78,534.125C753.48,511.91 774.597,466.345 788.225,424.22C790.314,417.763 786.768,410.824 780.311,408.735C773.854,406.646 766.916,410.193 764.827,416.649Z" style="fill:rgb(245,245,245);"/>
            <path d="M761.127,541.533C752.051,569.584 737.062,596.586 713.309,614.828C707.927,618.961 706.913,626.687 711.047,632.069C715.18,637.452 722.906,638.466 728.288,634.332C756.003,613.048 773.936,581.833 784.525,549.103C786.614,542.647 783.068,535.708 776.611,533.619C770.154,531.53 763.216,535.076 761.127,541.533Z" style="fill:rgb(245,245,245);"/>
            <path d="M1139.87,566.699C1156.9,593.597 1176.62,606.624 1204.59,620.538C1210.67,623.561 1218.06,621.081 1221.08,615.005C1224.1,608.929 1221.62,601.542 1215.55,598.519C1191.97,586.789 1175,576.216 1160.64,553.54C1157.01,547.807 1149.41,546.1 1143.67,549.731C1137.94,553.363 1136.23,560.965 1139.87,566.699Z" style="fill:rgb(245,245,245);"/>
        </g>
        <g transform="matrix(1,0,0,1.21482,52.795,146.434)">
            <path d="M1180.93,755.667C1180.93,693.488 1119.61,643.006 1044.07,643.006L770.342,643.006C694.805,643.006 633.479,693.488 633.479,755.667L633.479,1026.31C633.479,1088.48 694.805,1138.97 770.342,1138.97L1044.07,1138.97C1119.61,1138.97 1180.93,1088.48 1180.93,1026.31L1180.93,755.667Z" style="fill:white;"/>
        </g>
        <g transform="matrix(1.70221,0,0,1.99862,-678.584,-369.476)">
            <path d="M1061.83,564.441C1061.83,524.459 1023.72,491.999 976.777,491.999L948.464,491.999C901.52,491.999 863.407,524.459 863.407,564.441L863.407,651.286C863.407,691.268 901.52,723.728 948.464,723.728L976.777,723.728C1023.72,723.728 1061.83,691.268 1061.83,651.286L1061.83,564.441Z" style="fill:rgb(240,240,240);"/>
            <clipPath id="_clip1">
                <path d="M1061.83,564.441C1061.83,524.459 1023.72,491.999 976.777,491.999L948.464,491.999C901.52,491.999 863.407,524.459 863.407,564.441L863.407,651.286C863.407,691.268 901.52,723.728 948.464,723.728L976.777,723.728C1023.72,723.728 1061.83,691.268 1061.83,651.286L1061.83,564.441Z"/>
            </clipPath>
            <g clip-path="url(#_clip1)">
                <g transform="matrix(0.0985969,0,0,0.482369,784.969,382.261)">
                    <path d="M1061.83,500.635C1061.83,495.868 1039.61,491.999 1012.23,491.999L913.014,491.999C885.635,491.999 863.407,495.868 863.407,500.635L863.407,715.092C863.407,719.859 885.635,723.728 913.014,723.728L1012.23,723.728C1039.61,723.728 1061.83,719.859 1061.83,715.092L1061.83,500.635Z" style="fill:white;fill-opacity:0.18;"/>
                </g>
                <g transform="matrix(0.0985969,0,0,0.482369,811.87,354.837)">
                    <path d="M1061.83,500.635C1061.83,495.868 1039.61,491.999 1012.23,491.999L913.014,491.999C885.635,491.999 863.407,495.868 863.407,500.635L863.407,715.092C863.407,719.859 885.635,723.728 913.014,723.728L1012.23,723.728C1039.61,723.728 1061.83,719.859 1061.83,715.092L1061.83,500.635Z" style="fill:white;fill-opacity:0.18;"/>
                </g>
                <g transform="matrix(0.0985969,0,0,0.482369,857.927,376.013)">
                    <path d="M1061.83,500.635C1061.83,495.868 1039.61,491.999 1012.23,491.999L913.014,491.999C885.635,491.999 863.407,495.868 863.407,500.635L863.407,715.092C863.407,719.859 885.635,723.728 913.014,723.728L1012.23,723.728C1039.61,723.728 1061.83,719.859 1061.83,715.092L1061.83,500.635Z" style="fill:white;fill-opacity:0.18;"/>
                </g>
                <g transform="matrix(0.0985969,0,0,0.482369,914.989,361.086)">
                    <path d="M1061.83,500.635C1061.83,495.868 1039.61,491.999 1012.23,491.999L913.014,491.999C885.635,491.999 863.407,495.868 863.407,500.635L863.407,715.092C863.407,719.859 885.635,723.728 913.014,723.728L1012.23,723.728C1039.61,723.728 1061.83,719.859 1061.83,715.092L1061.83,500.635Z" style="fill:white;fill-opacity:0.18;"/>
                </g>
                <g transform="matrix(0.0985969,0,0,0.482369,941.89,333.662)">
                    <path d="M1061.83,500.635C1061.83,495.868 1039.61,491.999 1012.23,491.999L913.014,491.999C885.635,491.999 863.407,495.868 863.407,500.635L863.407,715.092C863.407,719.859 885.635,723.728 913.014,723.728L1012.23,723.728C1039.61,723.728 1061.83,719.859 1061.83,715.092L1061.83,500.635Z" style="fill:white;fill-opacity:0.18;"/>
                </g>
                <g transform="matrix(0.0985969,0,0,0.482369,987.948,354.837)">
                    <path d="M1061.83,500.635C1061.83,495.868 1039.61,491.999 1012.23,491.999L913.014,491.999C885.635,491.999 863.407,495.868 863.407,500.635L863.407,715.092C863.407,719.859 885.635,723.728 913.014,723.728L1012.23,723.728C1039.61,723.728 1061.83,719.859 1061.83,715.092L1061.83,500.635Z" style="fill:white;fill-opacity:0.18;"/>
                </g>
                <g transform="matrix(0.587471,0,0,0.500346,398.648,327.247)">
                    <path d="M800.579,554.659C799.749,583.718 796.129,619.592 799.523,652.718C801.854,675.472 807.5,696.938 819.293,714.255C830.355,730.499 845.387,742.455 861.493,753.421C873.609,761.67 886.999,767.402 901.262,770.817C903.77,771.417 906.294,769.869 906.894,767.36C907.495,764.852 905.946,762.328 903.438,761.727C890.283,758.578 877.928,753.304 866.753,745.695C851.621,735.393 837.41,724.255 827.018,708.995C816.061,692.905 810.986,672.906 808.82,651.766C805.469,619.052 809.102,583.624 809.922,554.926C809.996,552.348 807.962,550.195 805.384,550.122C802.806,550.048 800.653,552.081 800.579,554.659Z" style="fill-opacity:0.03;"/>
                </g>
            </g>
        </g>
        <g transform="matrix(0.37259,0,0,1,629.797,378.403)">
            <path d="M1056.21,279.765C1056.21,245.769 982.133,218.168 890.891,218.168C799.648,218.168 725.571,245.769 725.571,279.765L725.571,546.835C725.571,580.831 799.648,608.432 890.891,608.432C982.133,608.432 1056.21,580.831 1056.21,546.835L1056.21,279.765Z" style="fill:rgb(241,201,201);"/>
        </g>
        <g transform="matrix(1,0,0,1,-322.201,306.49)">
            <ellipse cx="1127.06" cy="425.407" rx="30.527" ry="34.968" style="fill:rgb(241,201,201);"/>
        </g>
        <g transform="matrix(1,0,0,1,69.1092,302.778)">
            <path d="M1056.21,383.488C1056.21,292.246 982.133,218.168 890.891,218.168C799.648,218.168 725.571,292.246 725.571,383.488L725.571,443.112C725.571,534.354 799.648,608.432 890.891,608.432C982.133,608.432 1056.21,534.354 1056.21,443.112L1056.21,383.488Z" style="fill:rgb(255,210,210);"/>
        </g>
        <g transform="matrix(1,0,0,1,0,284.566)">
            <path d="M865.539,591.895C849.356,574.363 832.922,554.466 822.614,532.835C810.948,508.355 806.801,482.177 804.855,455.364C801.172,404.616 802.783,348.112 837.636,307.147C846.389,296.859 857.698,288.925 868.939,281.577C871.097,280.166 871.704,277.267 870.293,275.109C868.882,272.95 865.983,272.343 863.825,273.754C851.841,281.588 839.849,290.123 830.518,301.091C794.046,343.959 791.679,402.935 795.533,456.04C797.564,484.02 802.004,511.311 814.177,536.855C824.88,559.316 841.868,580.03 858.672,598.234C860.421,600.13 863.38,600.248 865.275,598.499C867.17,596.749 867.289,593.79 865.539,591.895Z" style="fill-opacity:0.03;"/>
        </g>
        <g transform="matrix(1,0,0,1,0,284.566)">
            <path d="M848.995,291.57C860.157,305.776 874.655,321.873 890.995,330.089C904.481,336.87 920.071,340.185 934.99,341.764C964.164,344.853 1000.89,341.433 1030.43,327.425C1050.63,317.846 1067.47,303.347 1076.61,282.799C1077.66,280.443 1076.6,277.679 1074.24,276.63C1071.88,275.582 1069.12,276.644 1068.07,279C1059.85,297.472 1044.58,310.369 1026.42,318.98C998.438,332.254 963.618,335.397 935.974,332.47C922.153,331.007 907.688,328.021 895.193,321.739C880.018,314.108 866.711,298.989 856.344,285.795C854.751,283.767 851.811,283.415 849.783,285.008C847.755,286.601 847.402,289.542 848.995,291.57Z" style="fill-opacity:0.03;"/>
        </g>
        <g transform="matrix(1,0,0,1,0,284.566)">
            <path d="M952.361,439.251C949.75,443.373 947.4,447.669 944.574,451.653C942.058,455.198 938.89,458.866 936.709,462.809C933.988,467.726 932.692,473.03 934.593,478.91C935.387,481.364 938.024,482.712 940.478,481.918C942.932,481.125 944.28,478.488 943.486,476.034C942.454,472.843 943.411,470.002 944.887,467.333C946.902,463.691 949.873,460.336 952.197,457.061C955.118,452.943 957.559,448.512 960.257,444.251C961.637,442.072 960.989,439.183 958.81,437.803C956.631,436.423 953.741,437.072 952.361,439.251Z" style="fill-opacity:0.03;"/>
        </g>
        <g transform="matrix(1,0,0,1,0,284.566)">
            <path d="M845.471,413.985C865.253,412.289 885.044,412.599 904.866,413.596C907.441,413.726 909.638,411.74 909.768,409.164C909.897,406.588 907.911,404.391 905.335,404.262C885.091,403.243 864.878,402.941 844.672,404.673C842.103,404.893 840.195,407.158 840.415,409.728C840.636,412.298 842.901,414.205 845.471,413.985Z" style="fill-opacity:0.03;"/>
        </g>
        <g transform="matrix(1,0,0,1,0,284.566)">
            <path d="M994.543,416.72C1013.31,415.648 1032.21,413.932 1051.03,414.273C1053.61,414.32 1055.74,412.264 1055.79,409.685C1055.83,407.107 1053.78,404.975 1051.2,404.928C1032.15,404.583 1013.01,406.303 994.009,407.389C991.434,407.536 989.463,409.746 989.61,412.321C989.758,414.896 991.968,416.867 994.543,416.72Z" style="fill-opacity:0.03;"/>
        </g>
        <g transform="matrix(1,0,0,1,-9.01942,294.279)">
            <ellipse cx="1127.06" cy="425.407" rx="30.527" ry="34.968" style="fill:rgb(255,210,210);"/>
        </g>
        <g transform="matrix(1,0,0,1,-2.6206,284.566)">
            <path d="M1061.83,541.606C1061.83,514.227 1039.61,491.999 1012.23,491.999L913.014,491.999C885.635,491.999 863.407,514.227 863.407,541.606L863.407,674.122C863.407,701.5 885.635,723.728 913.014,723.728L1012.23,723.728C1039.61,723.728 1061.83,701.5 1061.83,674.122L1061.83,541.606Z" style="fill:rgb(245,245,245);"/>
            <clipPath id="_clip2">
                <path d="M1061.83,541.606C1061.83,514.227 1039.61,491.999 1012.23,491.999L913.014,491.999C885.635,491.999 863.407,514.227 863.407,541.606L863.407,674.122C863.407,701.5 885.635,723.728 913.014,723.728L1012.23,723.728C1039.61,723.728 1061.83,701.5 1061.83,674.122L1061.83,541.606Z"/>
            </clipPath>
            <g clip-path="url(#_clip2)">
                <g transform="matrix(0.167833,0,0,0.964072,737.232,5.88198)">
                    <path d="M1061.83,500.635C1061.83,495.868 1039.61,491.999 1012.23,491.999L913.014,491.999C885.635,491.999 863.407,495.868 863.407,500.635L863.407,715.092C863.407,719.859 885.635,723.728 913.014,723.728L1012.23,723.728C1039.61,723.728 1061.83,719.859 1061.83,715.092L1061.83,500.635Z" style="fill:white;fill-opacity:0.18;"/>
                </g>
                <g transform="matrix(0.167833,0,0,0.964072,783.022,-48.9283)">
                    <path d="M1061.83,500.635C1061.83,495.868 1039.61,491.999 1012.23,491.999L913.014,491.999C885.635,491.999 863.407,495.868 863.407,500.635L863.407,715.092C863.407,719.859 885.635,723.728 913.014,723.728L1012.23,723.728C1039.61,723.728 1061.83,719.859 1061.83,715.092L1061.83,500.635Z" style="fill:white;fill-opacity:0.18;"/>
                </g>
                <g transform="matrix(0.167833,0,0,0.964072,861.422,-6.60643)">
                    <path d="M1061.83,500.635C1061.83,495.868 1039.61,491.999 1012.23,491.999L913.014,491.999C885.635,491.999 863.407,495.868 863.407,500.635L863.407,715.092C863.407,719.859 885.635,723.728 913.014,723.728L1012.23,723.728C1039.61,723.728 1061.83,719.859 1061.83,715.092L1061.83,500.635Z" style="fill:white;fill-opacity:0.18;"/>
                </g>
                <g transform="matrix(1,0,0,1,2.6206,0)">
                    <path d="M872.087,532.808C872.087,571.53 873.829,610.243 874.883,648.946C875.114,657.449 875.085,667.369 876.787,676.654C878.649,686.806 882.583,696.182 890.523,702.693C899.75,710.257 913.126,712.664 924.611,714.166C945.88,716.947 967.388,717.881 988.818,718.166C991.396,718.2 993.518,716.134 993.552,713.555C993.587,710.976 991.521,708.855 988.942,708.82C967.875,708.54 946.731,707.632 925.823,704.898C915.971,703.61 904.364,701.954 896.449,695.465C890.242,690.375 887.436,682.905 885.98,674.968C884.366,666.165 884.445,656.755 884.225,648.692C883.174,610.073 881.433,571.445 881.433,532.808C881.433,530.229 879.339,528.135 876.76,528.135C874.181,528.135 872.087,530.229 872.087,532.808Z" style="fill-opacity:0.03;"/>
                </g>
            </g>
        </g>
        <g transform="matrix(0.52256,-0.14002,0.258819,0.965926,292.889,436.63)">
            <path d="M1038.73,502.096C1042.32,500.031 1044.16,497.836 1044.16,495.622C1044.16,485.697 1007.85,477.639 963.125,477.639C918.4,477.639 882.089,485.697 882.089,495.622C882.089,497.836 883.931,500.031 887.522,502.096L1038.73,502.096Z" style="fill:white;"/>
        </g>
        <g transform="matrix(-0.52256,-0.14002,-0.258819,0.965926,1631.69,436.63)">
            <path d="M1038.73,502.096C1042.32,500.031 1044.16,497.836 1044.16,495.622C1044.16,485.697 1007.85,477.639 963.125,477.639C918.4,477.639 882.089,485.697 882.089,495.622C882.089,497.836 883.931,500.031 887.522,502.096L1038.73,502.096Z" style="fill:white;"/>
        </g>
        <g transform="matrix(1,0,0,1,1.56016,284.566)">
            <path d="M958.44,432.336C958.44,432.336 938.32,457.105 938.32,467.72C938.32,478.825 947.335,487.84 958.44,487.84C969.545,487.84 978.56,478.825 978.56,467.72C978.56,457.105 958.44,432.336 958.44,432.336Z" style="fill:rgb(241,201,201);"/>
        </g>
        <g transform="matrix(1,0,0,1,-3.10773,284.566)">
            <g transform="matrix(1,0,0,1,-6.7493,7.45975)">
                <path d="M935.267,393.206C935.267,388.917 931.785,385.435 927.496,385.435L860.891,385.435C856.603,385.435 853.121,388.917 853.121,393.206C853.121,397.494 856.603,400.976 860.891,400.976L927.496,400.976C931.785,400.976 935.267,397.494 935.267,393.206Z" style="fill:white;"/>
            </g>
            <g transform="matrix(1,0,0,1,144.577,7.45975)">
                <path d="M935.267,393.206C935.267,388.917 931.785,385.435 927.496,385.435L860.891,385.435C856.603,385.435 853.121,388.917 853.121,393.206C853.121,397.494 856.603,400.976 860.891,400.976L927.496,400.976C931.785,400.976 935.267,397.494 935.267,393.206Z" style="fill:white;"/>
            </g>
        </g>
        <g transform="matrix(-2.05036,0,0,-2.05036,2930.38,1896.28)">
            <path d="M982.91,529.301C985.155,527.573 986.336,525.613 986.336,523.617C986.336,517.343 974.876,512.25 960.76,512.25C946.644,512.25 935.184,517.343 935.184,523.617C935.184,525.613 936.366,527.573 938.61,529.301L982.91,529.301Z" style="fill:rgb(241,201,201);"/>
        </g>
        <g transform="matrix(1,0,0,1,-3.48534,284.566)">
            <ellipse cx="893.683" cy="444.606" rx="21.136" ry="21.491" style="fill:rgb(0,166,255);"/>
            <g transform="matrix(1,0,0,1,139.604,0)">
                <ellipse cx="893.683" cy="444.606" rx="21.136" ry="21.491" style="fill:rgb(0,166,255);"/>
            </g>
        </g>
        <g transform="matrix(1.47489,0,0,-1.47489,-473.363,941.288)">
            <path d="M1037.64,292.284C1044.31,284.742 1047.82,276.188 1047.82,267.48C1047.82,240.102 1013.78,217.874 971.847,217.874C929.917,217.874 895.875,240.102 895.875,267.48C895.875,276.188 899.386,284.742 906.054,292.284L1037.64,292.284Z" style="fill:rgb(245,245,245);"/>
        </g>
    </g>
</svg>
