<?xml version="1.0" encoding="UTF-8" standalone="no"?>
<!DOCTYPE svg PUBLIC "-//W3C//DTD SVG 1.1//EN" "http://www.w3.org/Graphics/SVG/1.1/DTD/svg11.dtd">
<svg width="100%" height="100%" viewBox="0 0 1000 1000" version="1.1" xmlns="http://www.w3.org/2000/svg" xmlns:xlink="http://www.w3.org/1999/xlink" xml:space="preserve" xmlns:serif="http://www.serif.com/" style="fill-rule:evenodd;clip-rule:evenodd;stroke-linejoin:round;stroke-miterlimit:2;">
    <g transform="matrix(1.80317,0,0,1.594,-295.249,-376)">
        <ellipse cx="441.029" cy="549.561" rx="277.29" ry="313.676" style="fill:rgb(0,183,255);"/>
        <clipPath id="_clip1">
            <ellipse cx="441.029" cy="549.561" rx="277.29" ry="313.676"/>
        </clipPath>
        <g clip-path="url(#_clip1)">
            <g transform="matrix(0.55458,0,0,0.627353,163.739,235.885)">
                <path d="M217.766,275.262C221.474,242.82 231.206,212.508 255.375,189.601C270.764,175.015 289.927,165.015 304.399,149.484C322.465,130.096 332.024,103.805 357.144,91.691C387.405,77.097 441.198,72.704 463.166,103.867C483.893,133.268 458.196,162.005 434.05,178.033C415.721,190.199 408.727,212.989 388.899,223.043C363.078,236.136 331.311,231.445 303.132,245.833C280.538,257.369 258.232,282.399 230.387,278.832" style="fill:rgb(0,165,3);"/>
            </g>
            <g transform="matrix(0.55458,0,0,0.627353,163.739,235.885)">
                <path d="M361.255,306.656C354.656,306.468 348.449,304.106 342.431,301.589C339.721,300.456 336.937,299.573 335.03,297.218C324.096,283.712 334.476,265.036 349.615,262.218C359.038,260.464 369.473,261.024 378.834,262.976C382.987,263.841 387.835,265.145 391.09,268.032C402.73,278.356 394.563,302.637 381.347,307.47" style="fill:rgb(0,165,3);"/>
            </g>
            <g transform="matrix(0.55458,0,0,0.627353,163.739,235.885)">
                <path d="M674.155,25.729C670.704,40.829 653.162,57.933 655.955,73.477C658.996,90.401 675.377,102.341 682.934,117.197C689.899,130.891 688.009,144.46 689.632,159.189C691.921,179.96 699.938,195.69 692.745,216.704C689.958,224.846 683.449,231.49 679.629,239.151C677.585,243.249 677.153,247.806 676.083,252.197C672.275,267.823 658.026,307.08 636.775,282.679C632.329,277.574 638.875,275.032 643.817,272.786C654.089,268.12 676.965,260.993 660.804,247.367C653.509,241.217 636.058,240.244 626.771,237.998C615.027,235.158 603.271,230.558 591.207,229.328C561.108,226.26 540.219,256.409 529.321,280.45C525.501,288.877 524.934,298.307 518.977,305.645C502.395,326.071 466.248,353.043 476.507,382.923C483.388,402.967 500.809,393.597 515.411,392.571C517.622,392.416 523.768,408.693 524.835,411.094C532.286,427.868 550.393,423.911 560.462,411.768C577.435,391.297 559.076,357.175 564.852,328.68C566.383,321.128 572.243,302.034 582.639,301.768C587.255,301.65 588.773,311.202 588.908,314.064C589.434,325.163 581.835,342.3 590.801,351.194C597.835,358.171 613.89,350.927 621.726,349.348C625.082,348.672 632.747,346.671 633.36,352.141C635.033,367.086 605.495,371.039 602.218,379.003C602.137,379.199 608.91,388.731 608.241,392.306C606.735,400.352 596.262,405.01 596.65,414.069C596.747,416.331 604.574,419.305 606.311,419.99C618.017,424.612 630.492,424.121 642.863,423.604C690.592,421.613 740.166,403.841 784.398,386.637C811.66,376.033 839.821,366.604 865.873,353.165C916.689,326.95 970.508,279.245 990.982,224.643C1004.18,189.447 1003.95,148.751 1005.46,111.628" style="fill:rgb(0,165,3);"/>
            </g>
            <g transform="matrix(0.55458,0,0,0.627353,163.739,235.885)">
                <path d="M518.671,445.927C514.188,439.428 518.407,433.873 520.647,427.407C522.228,422.845 522.483,418.254 521.486,413.555C520.873,410.67 519.956,407.863 517.461,406.07C510.544,401.1 500.763,408.76 498.223,415.288C495.182,423.102 498.332,431.73 501.683,438.82C503.367,442.384 505.7,446.047 504.439,450.049C502.252,456.991 495.198,461.298 489.977,465.79C487.345,468.054 485.224,470.972 483.348,473.869C479.435,479.909 478.17,486.041 477.493,493.115C476.665,501.76 476.695,511.658 480.806,519.564C483.07,523.919 486.688,527.804 489.853,531.504C493.045,535.235 496.491,539.085 500.681,541.729C503.658,543.606 507.126,544.429 510.487,545.331C517.007,547.082 523.867,548.481 530.592,547.101C536.13,545.965 541.154,543.235 546.284,540.983C553.182,537.955 561.429,535.738 567.271,530.786C570.515,528.036 572.699,524.406 574.656,520.679C576.522,517.123 578.672,513.705 579.52,509.729C581.243,501.65 579.532,491.707 576.868,483.902C574.411,476.706 569.994,468.797 563.396,464.638C556.225,460.118 546.552,459.955 538.465,457.964C534.156,456.903 530.589,454.048 526.613,452.196" style="fill:rgb(0,165,3);"/>
            </g>
            <g transform="matrix(0.55458,0,0,0.627353,163.739,235.885)">
                <path d="M515.092,445.085C518.523,444.987 521.983,444.846 525.413,444.992C528.139,445.109 530.902,445.752 533.619,445.743C535.75,445.736 537.789,445.115 539.938,445.206C544.896,445.416 549.599,447.28 554.593,446.283C562.505,444.703 567.643,437.474 575.326,435.584C578.154,434.888 581.26,435.795 583.918,436.764C586.015,437.528 587.909,438.56 590.055,437.393C599.767,432.113 592.5,418.988 596.353,411.117C598.672,406.379 605.163,404.182 609.708,402.336C614.923,400.219 620.506,398.673 625.989,397.409C629.023,396.71 632.435,395.972 635.557,396.397C640.627,397.086 645.663,399.89 650.096,402.38C659.035,407.402 659.339,421.823 658.752,430.579C658.31,437.18 657.244,443.768 656.034,450.267C652.661,468.378 647.31,487.465 635.318,501.897C628.631,509.945 619.435,517.472 609.811,521.653C603.969,524.191 597.625,525.551 591.39,526.725C586.066,527.728 580.534,529.057 575.08,528.744C569.025,528.397 563.462,525.666 557.611,524.313C551.281,522.849 544.825,522 538.5,520.543C534.056,519.519 529.719,518.031 525.335,516.782" style="fill:rgb(0,165,3);"/>
            </g>
            <g transform="matrix(0.55458,0,0,0.627353,163.739,235.885)">
                <path d="M509.58,453.245C500.062,453.245 488.139,451.8 479.592,456.975C473.238,460.822 469.903,467.878 465.849,473.813C458.794,484.142 452.217,493.367 440.643,499.043C425.734,506.355 410.336,504.916 394.593,507.986C389.936,508.894 380.982,511.077 379.696,516.643C377.43,526.448 387.764,533.418 394.028,538.677C404.88,547.787 413.836,566.017 404.554,579.453C401.335,584.113 394.368,583.093 389.615,582.084C377.226,579.454 365.427,569.702 352.519,570.049C341.127,570.356 335.63,581.311 331.744,590.439C327.269,600.949 322.497,611.16 318.979,622.053C315.428,633.051 313.487,641.639 320.725,651.628C327.428,660.879 339.708,667.042 350.522,669.988C363.797,673.604 376.523,675.037 390.109,672.952C396.393,671.988 403.543,670.407 408.754,666.497C418.075,659.503 418.877,648.726 424.89,639.657C430.269,631.545 438.73,626.334 444.861,618.886C447.094,616.173 450.125,612.349 450.251,608.646C450.333,606.245 448.303,603.67 449.115,601.34C450.808,596.489 457.153,594.592 461.548,593.44C464.093,592.774 466.698,592.223 469.329,592.062C475.186,591.704 480.166,594.901 485.825,594.242C493.239,593.378 499.699,587.988 507.371,589.498C514.02,590.807 520.413,595.238 525.829,599.058C536.033,606.256 543.194,614.297 551.076,623.802C554.89,628.402 558.993,632.462 562.331,637.465C566.151,643.191 568.063,650.894 572.714,655.942C579.699,663.524 592.758,663.079 599.559,655.219C607.32,646.251 603.836,633.888 596.525,625.909C583.331,611.511 558.441,605.585 551.498,585.589C548.487,576.92 553.339,566.93 557.246,559.359C566.581,541.267 580.675,527.014 587.008,507.241" style="fill:rgb(0,165,3);"/>
            </g>
            <g transform="matrix(0.55458,0,0,0.627353,163.739,235.885)">
                <path d="M541.045,568.503C552.679,572.609 564.831,575.391 575.459,581.882C592.76,592.447 606.092,612.737 618.024,628.715C624.953,637.993 630.447,647.984 636.627,657.729C639.403,662.107 642.839,667.16 648.476,667.346C650.495,667.412 652.517,667.168 654.489,666.745C670.675,663.276 661.778,642.199 659.724,631.874C659.073,628.606 657.56,624.17 658.797,620.884C663.037,609.62 681.736,610.474 690.697,604.415C692.743,603.032 698.062,600.364 698.6,597.671C699.087,595.231 697.023,591.785 696.13,589.666C693.936,584.456 691.949,579.307 690.774,573.755C688.273,561.933 692.515,546.832 697.533,536.05C698.414,534.156 699.579,532.388 701.065,530.917C715.88,516.259 729.486,545.071 746.358,536.769C747.915,536.002 749.421,534.911 750.696,533.743C752.287,532.287 754.338,530.114 755.08,528.053C755.634,526.514 753.781,523.157 753.13,521.886C750.727,517.199 745.935,512.38 747.559,506.718C749.422,500.223 755.892,494.926 759.716,489.544C765.824,480.949 769.435,471.109 769.985,460.531C771.043,440.147 766.719,418.543 760.726,399.113C757.94,390.083 754.707,380.095 747.873,373.234C720.775,346.029 680.255,367.199 656.14,386.918C651.253,390.915 646.529,395.046 642.351,399.793" style="fill:rgb(0,165,3);"/>
            </g>
            <g transform="matrix(0.55458,0,0,0.627353,163.739,235.885)">
                <path d="M531.442,1016.8C529.149,1005.34 527.914,991.963 520.138,982.503C506.894,966.389 488.592,967.763 469.611,967.782C457.037,967.795 444.446,965.833 431.852,965.578C415.479,965.246 399.339,966.962 383.164,963.591C333.618,953.264 319.834,934.775 279.63,909.175C262.837,898.482 248.683,885.58 234.707,871.478C226.788,863.488 218.978,855.215 218.651,843.329C218.407,834.445 222.964,826.442 223.373,817.627C224.017,803.732 217.743,792.273 225.664,779.226C232.52,767.932 244.33,762.912 254.928,755.883C267.987,747.22 279.764,737.078 290.731,725.902C297.656,718.845 299.967,709.622 305.79,702.019C312.506,693.249 338.039,676.777 348.694,673.814C367.69,668.532 391.756,683.076 414.391,680.373C445.812,676.62 486.914,664.507 518.013,673.626C534.565,678.479 532.442,693.305 540.441,705.617C549.543,719.624 559.997,724.015 573.764,732.116C579.303,735.375 584.151,739.966 590.662,741.218C614.432,745.789 615.085,719.231 633.419,712.98C650.369,707.201 669.026,720.958 686.478,719.834C703.812,718.718 720.048,702.617 737.183,704.562C748.827,705.884 754.202,716.364 760.966,724.443C776.254,742.704 789.502,762.854 804.897,780.847C812.504,789.737 820.507,798.122 831.283,803.171C844.196,809.221 858.365,810.845 869.323,820.733C907.415,855.107 910.577,926.451 901.361,973.956" style="fill:rgb(0,165,3);"/>
            </g>
            <g transform="matrix(0.55458,0,0,0.627353,163.739,235.885)">
                <path d="M30.955,309.863C45.939,305.896 70.385,299.122 83.819,310.75C93.901,319.477 84.389,361.753 109.794,351.323C112.784,350.096 115.669,348.723 118.339,346.887C145.782,328.018 138.002,303.103 144.681,275.225C150.88,249.353 169.446,230.99 180.074,207.515C181.142,205.155 178.592,201.79 177.856,199.77C176.627,196.394 176.978,192.781 178.009,189.42C181.585,177.764 192.53,169.022 197.379,157.68C198.738,154.501 202.046,147.593 199.561,144.18C192.403,134.347 175.983,140.926 167.953,145.667C165.707,146.993 162.192,150.513 159.66,150.908C159.081,150.998 154.806,145.871 154.119,145.236C149.055,140.553 142.896,137.495 136.393,135.312C118.628,129.349 98.796,131.003 80.697,134.304" style="fill:rgb(0,165,3);"/>
            </g>
            <g transform="matrix(0.55458,0,0,0.627353,163.739,235.885)">
                <path d="M212.567,86.267C215.032,87.422 217.383,88.731 219.643,90.25C232.459,98.864 223.255,110.534 221.116,122.567C219.588,131.167 220.526,139.908 219.59,148.55C218.532,158.32 205.646,170.589 221.997,174.344C231.624,176.554 241.019,173.436 249.536,169.071C262.47,162.443 275.935,154.88 283.744,142.135C290.394,131.279 292.007,118.41 298.292,107.586C301.802,101.543 307.25,96.614 312.819,92.482C323.215,84.767 336.073,84.806 348.373,83.281C358.278,82.053 367.88,79.126 377.741,77.654C387.105,76.255 401.44,74.665 405.954,64.558C412.43,50.063 399.506,38.069 393.761,26.316C391.247,21.174 389.7,15.488 388.639,9.883C387.889,5.921 387.947,1.481 385.404,-1.868C382.169,-6.128 377.091,-8.883 372.444,-11.339C353.459,-21.368 330.609,-18.714 311.142,-11.479" style="fill:rgb(0,165,3);"/>
            </g>
            <g transform="matrix(0.55458,0,0,0.627353,163.739,235.885)">
                <path d="M687.363,605.526C676.938,626.375 679.202,658.687 709.044,658.596C724.208,658.55 740.279,647.861 753.518,641.671C758.739,639.23 779.538,627.253 783.058,631.737C804.596,659.162 751.805,695.675 760.936,721.08C768.458,742.01 782.182,723.204 798.847,735.794C814.702,747.771 829.476,763.212 841.371,779.104C847.556,787.367 854.676,801.597 864.402,806.124C874.489,810.82 887.644,805.18 896.064,799.408C935.067,772.671 947.036,722.781 964.686,681.996C970.576,668.385 983.095,645.053 970.312,632.13C960.966,622.683 931.684,637.786 919.406,637.26C916.34,637.128 908.111,637.078 905.912,634.381C904.442,632.579 910.078,632.304 912.21,631.373C916.306,629.584 920.476,627.989 924.619,626.312C936.603,621.46 948.689,616.065 960.191,610.164C986.795,596.514 1018.13,549.898 1008.08,519.137C999.295,492.236 956.298,505.362 939.451,514.477C924.399,522.621 906.971,542.812 893.009,547.394C869.991,554.947 843.351,546.641 819.632,549.762C800.491,552.28 781.134,560.861 763.27,567.849C740.938,576.586 717.55,584.743 696.25,595.794" style="fill:rgb(0,165,3);"/>
            </g>
            <g transform="matrix(0.55458,0,0,0.627353,163.739,235.885)">
                <path d="M754.013,491.498C757.548,503.517 755.581,513.495 765.147,523.339C771.868,530.255 781.774,531.936 788.295,538.73C803.436,554.504 798.457,560.967 822.2,569.056C836.56,573.949 864.423,579.371 870.838,559.795C883.876,520.016 840.704,516.643 832.562,483.364C830.033,473.026 835.364,460.129 838.044,450.325C841.817,436.523 843.876,422.282 842.958,407.949C839.263,350.293 768.8,299.838 715.276,332.968" style="fill:rgb(0,165,3);"/>
            </g>
            <g transform="matrix(0.55458,0,0,0.627353,163.739,235.885)">
                <path d="M818.254,484.271C820.7,477.543 823.646,470.953 827.073,464.665C829.255,460.66 831.454,456.836 834.47,453.395C858.536,425.934 878.658,476.926 886.576,493.376C888.917,498.238 891.267,503.031 892.944,508.176C896.381,518.728 898.049,531.582 885.891,537.429C881.54,539.523 856.664,536.983 860.781,546.054C869.353,564.941 897.521,564.803 914.725,563.045C950.678,559.372 1003.92,525.782 1019.49,492.649C1034.42,460.883 1033.29,429.769 1031.91,395.891C1031.22,378.879 1032.77,361.434 1028.96,344.716C1025.26,328.534 1020.38,311.784 1009.52,298.831C996.52,283.321 976.108,276.639 957.165,271.757C940.41,267.439 922.15,264.32 904.829,266.167C887.347,268.032 872.847,276.083 857.556,284.037C831.848,297.41 799.331,317.356 786.759,344.767C782.449,354.164 781.416,364.453 779.888,374.573" style="fill:rgb(0,165,3);"/>
            </g>
            <g transform="matrix(0.55458,0,0,0.627353,163.739,235.885)">
                <path d="M414.074,490.118C409.573,492.027 404.942,493.536 400.209,494.753C397.179,495.532 394.082,496.02 390.975,496.371C388.997,496.595 386.427,497.268 384.482,496.556C378.374,494.321 377.653,485.87 379.8,480.716C382.068,475.268 386.785,471.458 390.81,467.346C396.731,461.297 403.189,453.317 404.881,444.828C406.834,435.03 402.16,426.422 399.537,417.296C396.164,405.567 396.831,393.416 404.944,383.744C407.222,381.029 410.19,378.821 413.432,377.394C423.68,372.883 433.263,378.156 436.641,388.452C441.34,402.777 437.422,416.759 438.17,431.257C438.355,434.849 438.572,438.49 439.652,441.942C443.8,455.194 454.287,470.472 442.23,482.917C440.488,484.715 438.498,486.274 436.308,487.49" style="fill:rgb(0,165,3);"/>
            </g>
            <g transform="matrix(0.55458,0,0,0.627353,163.739,235.885)">
                <path d="M362.763,466.765C360.977,466.867 359.151,466.689 357.383,466.437C356.1,466.254 354.888,465.722 353.756,465.108C343.727,459.666 356.019,449.877 358.952,444.34C362.625,437.405 362.382,428.225 369.628,423.48C371.439,422.294 373.467,421.402 375.527,420.747C384.892,417.768 396.043,423.122 397.642,433.384C399.135,442.966 393.359,457.507 385.044,462.668" style="fill:rgb(0,165,3);"/>
            </g>
        </g>
    </g>
</svg>
