<?xml version="1.0" encoding="UTF-8" standalone="no"?>
<!DOCTYPE svg PUBLIC "-//W3C//DTD SVG 1.1//EN" "http://www.w3.org/Graphics/SVG/1.1/DTD/svg11.dtd">
<svg width="100%" height="100%" viewBox="0 0 1000 1000" version="1.1" xmlns="http://www.w3.org/2000/svg" xmlns:xlink="http://www.w3.org/1999/xlink" xml:space="preserve" xmlns:serif="http://www.serif.com/" style="fill-rule:evenodd;clip-rule:evenodd;stroke-linejoin:round;stroke-miterlimit:2;">
    <g>
        <path d="M816.011,112.628C928.277,204.346 1000,343.863 1000,500C1000,775.958 775.958,1000 500,1000C343.863,1000 204.346,928.277 112.628,816.011C198.785,886.4 308.818,928.639 428.639,928.639C704.596,928.639 928.639,704.596 928.639,428.639C928.639,308.818 886.4,198.785 816.011,112.628Z" style="fill-opacity:0.34;"/>
        <path d="M735.08,58.678C892.683,142.887 1000,309.01 1000,500C1000,775.958 775.958,1000 500,1000C309.01,1000 142.887,892.683 58.678,735.08C128.745,772.518 208.791,793.758 293.758,793.758C569.715,793.758 793.758,569.715 793.758,293.758C793.758,208.791 772.518,128.745 735.08,58.678Z" style="fill-opacity:0.16;"/>
    </g>
</svg>
